<?xml version="1.0" encoding="utf-8"?>
<!-- Generator: Adobe Illustrator 14.0.0, SVG Export Plug-In . SVG Version: 6.00 Build 43363)  -->
<!DOCTYPE svg PUBLIC "-//W3C//DTD SVG 1.1//EN" "http://www.w3.org/Graphics/SVG/1.1/DTD/svg11.dtd">
<svg version="1.1" id="Layer_2" xmlns="http://www.w3.org/2000/svg" xmlns:xlink="http://www.w3.org/1999/xlink" x="0px" y="0px"
	 width="696px" height="762px" viewBox="0 0 696 762" enable-background="new 0 0 696 762" xml:space="preserve">
<g>
	<path fill="#5F5F5F" d="M321.555,266.829c0-5.585-5.227-9.104-9.277-14.59c-0.008-0.007-0.012-0.016-0.02-0.023
		c-2.791-3.791-5.022-8.525-4.589-15.527c1.984-32.049-9.954-55.628-28.003-68.998c13.323-7.982,34.958-36.1,32.856-63.776
		c-1.85-24.386-21.422-38.909-40.413-38.063v0.004c3.928,20.588-3.668,51.228-29.318,51.228c5.247,4.349,10.473,7.962,14.7,10.832
		c17.385,11.808,12.445,27.763,9.702,32.553l-0.004,0.004c-2.385-1.047-4.833-1.944-7.329-2.688
		c-1.188-0.358-2.389-0.685-3.601-0.972c-7.959-1.778-16.405-1.245-23.812,2.33c0,0,0-0.001,0-0.001
		c-1.444,0.654-2.672-1.066-2.183-2.234l-0.004,0c2.485-5.966,4.52-11.75,5.954-17.141c0.004-0.02,0.012-0.04,0.016-0.059
		c0.318-1.295-0.382-3.121-2.086-3.758c-0.004-0.004-0.008-0.004-0.012-0.004c-0.095-0.027-0.189-0.059-0.288-0.09
		c-0.016-0.008-0.036-0.016-0.055-0.02c-5.86-1.933-13.515-8.108-25.598-22.355c-3.074-3.621-7.293-6.923-12.366-9.753
		c7.407-22.096-0.59-53.999-18.522-67.381c-22.296,12.004-32.171,47.19-32.175,57.297c-8.615,0.598-17.369,2.311-25.819,5.353
		c-8.415,3.149-16.196,7.506-23.154,12.626c-6.584-7.71-36.875-28.078-61.615-22.777c-4.983,21.777,9.548,51.213,29.463,63.272
		c-2.031,5.435-3.109,10.678-3.109,15.42c0,18.679-1.842,28.342-5.062,33.608c-0.063,0.106-0.13,0.212-0.193,0.314
		c-0.012,0.008-0.016,0.02-0.02,0.028c-0.877,1.606-0.197,3.467,0.909,4.223c4.766,3.318,10.312,6.541,16.349,9.591
		c11.701,5.916,25.252,11.182,38.595,15.208c0,0-2.763,33.203-6.175,59.989c-2.125,16.692-4.503,30.893-6.62,33.01
		c-5.51,5.51-20.49,12.087-20.27,21.336c0.299,12.425,11.217,18.301,21.057,15.94s24.386-9.446,22.426-24.008
		c-1.035-7.683,2.09-24.449,5.278-39.681c1.456-6.986,2.932-13.649,4.019-18.959c12.905,5.235,27.393,7.258,41.519,6.589
		c1.066,6.025,2.055,12.61,2.779,19.12c1.991,17.884,2,35.249-3.711,39.228c-10.721,7.478-15.602,19.164-7.218,27.55
		c8.387,8.387,25.827,4.33,30.549-5.116c4.723-9.446,8.639-15.625,5.164-27.826c-1.61-5.648-2.09-20.183-2.145-34.159
		c0-0.012,0-0.027,0-0.04c-0.032-8.639,0.098-17.058,0.228-23.04c7.274-2.149,14.047-5.05,19.974-8.608
		c3.81-2.286,7.584-4.545,11.292-6.793c2.574,2.755,4.16,5.64,4.16,9.324c0,9.839,0.279,22.186-9.473,27.13
		c-9.84,4.982-11.272,18.262-3.806,23.615c6.167,4.416,12.594,5.801,21.442,4.797c10.756-1.22,15.818-9.127,13.85-19.753
		s6.014-37.678,6.014-47.124c0-5.152-4.451-8.541-8.316-13.346c2.854-2.011,5.584-4.042,8.185-6.095l0.005,0.004
		c0.688-0.546,1.416-0.442,1.987,0.422c0,0,0.001,0,0.001,0c2.132,3.305,4.607,6.227,7.344,8.963
		c5.447,5.447,10.926,9.226,15.109,12.804c4.424,3.774,7.407,7.324,7.407,12.378c0,9.839,0.283,22.186-9.474,27.129
		c-9.839,4.987-11.268,18.266-3.806,23.615c6.167,4.42,12.594,5.801,21.442,4.798c10.756-1.22,15.818-9.127,13.85-19.754
		S321.555,276.274,321.555,266.829z"/>
	<path fill="#CD6634" d="M307.669,236.688c1.984-32.049-9.954-55.628-28.003-68.998c13.323-7.982,34.958-36.1,32.856-63.776
		c-1.85-24.386-21.422-38.909-40.413-38.063v0.004c3.928,20.588-3.668,51.228-29.318,51.228c5.247,4.349,10.473,7.962,14.7,10.832
		c17.385,11.808,12.445,27.763,9.702,32.553l-0.004,0.004c-2.385-1.047-4.833-1.944-7.329-2.688
		c-1.188-0.358-2.389-0.685-3.601-0.972c-7.959-1.778-16.405-1.245-23.812,2.33c0,0,0-0.001,0-0.001
		c-1.444,0.654-2.672-1.066-2.183-2.234l-0.004,0c2.485-5.966,4.52-11.75,5.954-17.141c0.004-0.02,0.012-0.04,0.016-0.059
		c0.318-1.295-0.382-3.121-2.086-3.758c-0.004-0.004-0.008-0.004-0.012-0.004c-0.095-0.027-0.189-0.059-0.288-0.09
		c-0.016-0.008-0.036-0.016-0.055-0.02c-5.86-1.933-13.515-8.108-25.598-22.355c-3.074-3.621-7.293-6.923-12.366-9.753
		c7.407-22.096-0.59-53.999-18.522-67.381c-22.296,12.004-32.171,47.19-32.175,57.297c-8.615,0.598-17.369,2.311-25.819,5.353
		c-8.415,3.149-16.196,7.506-23.154,12.626c-6.584-7.71-36.875-28.078-61.615-22.777c-4.983,21.777,9.548,51.213,29.463,63.272
		c-2.031,5.435-3.109,10.678-3.109,15.42c0,18.679-1.842,28.342-5.062,33.608c-0.063,0.106-0.13,0.212-0.193,0.314
		c-0.012,0.008-0.016,0.02-0.02,0.028c-0.877,1.606-0.197,3.467,0.909,4.223c4.766,3.318,10.312,6.541,16.349,9.591
		c11.701,5.916,25.252,11.182,38.595,15.208c0,0-2.763,33.203-6.175,59.989c0-0.204,0.413-0.476,0.744-0.275
		c5.864,3.531,13.181,5.982,20.553,6.084c0.37,0,0.693,0.217,0.571,0.788h0.004c1.456-6.986,2.932-13.649,4.019-18.959
		c12.905,5.235,27.393,7.258,41.519,6.589c1.066,6.025,2.055,12.61,2.779,19.12c0-0.622,0.433-0.94,0.933-0.78
		c6.494,2.129,13.897,2.216,20.545-0.401c0.008-0.004,0.012-0.004,0.02-0.008c0.559-0.216,1.086,0.012,1.142,0.827
		c-0.032-8.639,0.098-17.058,0.228-23.04c7.274-2.149,14.047-5.05,19.974-8.608c3.81-2.286,7.584-4.545,11.292-6.793
		c8.446-5.125,16.538-10.186,23.871-15.357c2.854-2.011,5.584-4.042,8.185-6.095l0.005,0.004c0.688-0.546,1.416-0.442,1.987,0.422
		c0,0,0.001,0,0.001,0c2.132,3.305,4.607,6.227,7.344,8.963c5.447,5.447,10.926,9.226,15.109,12.804v-0.004
		c-0.685-0.579-0.433-1.023,0.244-1.134c0.003,0,0.003,0,0.007,0c9.226-1.338,19.349-5.416,24.576-12.65
		c0.318-0.452,0.771-0.476,1.311,0.221C309.468,248.424,307.236,243.69,307.669,236.688z M67.074,145.161
		c-15-10.666-23.202-31.813-24.15-41.058c12.047-2,35.146,12.661,40.357,18.73C76.421,129.894,70.911,137.593,67.074,145.161z
		 M188.985,100.403c-7.821-3.287-16.999-5.589-26.792-6.534c0-7.935,8.116-34.174,18.613-40.472
		C186.081,61.069,193.547,82.546,188.985,100.403z"/>
	<path fill="none" stroke="#484A4A" stroke-width="0.5" stroke-linecap="round" stroke-linejoin="round" d="M102.255,325.73
		c6.087,0.979,11.182,2.761,15.478,5.583 M195.567,342.413c-5.257-1.322-11.209-1.756-17.171-1.286 M249.887,304.298
		c-4.522-2.11-10.143-3.031-16.406-3.053 M310.894,306.91c-4.872-2.524-11.143-3.551-18.182-3.481"/>
	<path fill="none" stroke="#AE572A" stroke-width="0.5" stroke-linecap="round" stroke-linejoin="round" d="M259.657,236.314
		c-2.752-6.759-4.334-15.054-4.334-25.877 M301.765,125.921c5.904-19.574-3.148-38.675-18.892-46.547"/>
	<path fill="#FFFFFF" d="M217.669,165.985c-10.603,7.659-21.844,20.071-35.1,14.388c-17.806-7.635-23.17-6.958-34.116-3.141
		c-10.815,4.172-15.342,7.128-23.977,24.473c-6.427,12.914-23.799,11.002-36.838,12.029c0.008,3.4,9.34,11.894,21.088,15.928
		c0.917,0.288,1.834,0.571,2.748,0.846c24.264,7.325,47.843,6.349,58.368,1.968c11.28-3.602,27.983-18.365,42.097-40.74
		c6.325-10.67,7.935-23.146,5.743-25.732L217.669,165.985z"/>
	<path fill="#FFFFFF" d="M272.109,65.855v-0.004c-2.563,0.114-5.113,0.508-7.604,1.192c-19.454,5.349-32.49-3.393-39.826-10.237
		c-0.008-0.008-0.012-0.012-0.02-0.016c-0.949-0.838-2.244-0.138-2.657,0.783c-0.004,0.008-0.008,0.016-0.012,0.024
		c-11.103,26.429,4.928,46.328,20.801,59.485C268.441,117.083,276.037,86.443,272.109,65.855z"/>
	<path fill="#F1F2F2" d="M272.92,72.07c-3.48,0.11-6.93,0.75-10.25,1.93c-15.18,5.36-30.64,3.28-41.84-13.38
		c-8.71,24.93,6.7,43.82,21.96,56.46C265.96,117.08,274.4,92.08,272.92,72.07z"/>
	<g>
		<g id="XMLID_2_">
			<path fill="#E6E7E8" d="M194.21,214.76c-8.92,9.4-17.61,15.56-24.37,17.72c-10.52,4.38-34.1,5.35-58.37-1.97
				c-0.91-0.28-1.83-0.56-2.74-0.85C122.97,233.4,163.19,237.24,194.21,214.76z"/>
			<path fill="#E6E7E8" d="M168.01,183.85c0.13,0.38,0.17,0.74,0.17,1.1c0,0.63-0.13,1.23-0.32,1.85c-0.19,0.62-0.45,1.26-0.76,1.92
				c-0.62,1.32-1.45,2.74-2.35,4.15c-1.81,2.81-3.91,5.59-5.23,7.27l-0.01,0.01l-0.05,0.06l-0.01,0.02
				c-0.52,0.62-1.18,1.03-1.84,1.29c-0.67,0.27-1.35,0.39-2.02,0.39c-0.32,0-0.64-0.03-0.95-0.09h-0.01
				c-1.5-0.32-3.61-0.78-5.83-1.37c-2.21-0.59-4.52-1.29-6.45-2.1c-1.29-0.54-2.41-1.11-3.3-1.84c-0.5-0.42-0.95-0.9-1.23-1.57
				c-0.33-0.82-0.5-1.73-0.5-2.69c0-2.16,0.87-4.58,2.81-6.8c0.97-1.11,2.19-2.18,3.72-3.16c1.52-0.97,3.34-1.86,5.48-2.62
				c0,0,0.01,0,0.02,0c0-0.01,0.01-0.01,0.01-0.01c3.18-1.21,5.98-1.72,8.41-1.72C163.31,177.93,166.95,180.67,168.01,183.85z"/>
			<path fill="#F1F2F2" d="M168.01,183.85c-1.06-3.18-4.7-5.92-10.24-5.91c-2.43,0-5.23,0.51-8.41,1.72c0,0-0.01,0-0.01,0.01
				c-0.01,0-0.02,0-0.02,0c-2.14,0.76-3.96,1.65-5.48,2.62c-1.53,0.98-2.75,2.05-3.72,3.16c-1.94,2.22-2.81,4.64-2.81,6.8
				c0,0.96,0.17,1.87,0.5,2.69c0.28,0.67,0.73,1.15,1.23,1.57c0.89,0.73,2.01,1.3,3.3,1.84c1.93,0.81,4.24,1.51,6.45,2.1
				c2.22,0.59,4.33,1.05,5.83,1.37h0.01c0.31,0.06,0.63,0.09,0.95,0.09c0.67,0,1.35-0.12,2.02-0.39c0.66-0.26,1.32-0.67,1.84-1.29
				l0.01-0.02l0.05-0.06l0.01-0.01c1.32-1.68,3.42-4.46,5.23-7.27c0.9-1.41,1.73-2.83,2.35-4.15c0.31-0.66,0.57-1.3,0.76-1.92
				c0.19-0.62,0.32-1.22,0.32-1.85C168.18,184.59,168.14,184.23,168.01,183.85z M150.29,176.61c3.77-1.14,17.71-0.86,25.46,3.89
				s22.1,9.45,36-4.45c3.73,3.72,1.21,13.87,1.21,13.87h0.01c-0.33,0.61-0.67,1.22-1.03,1.82c-5.66,8.96-11.73,16.71-17.71,23.01
				l-0.02,0.01c-31.02,22.48-71.24,18.64-85.48,14.9c-11.75-4.03-21.08-12.53-21.09-15.93c13.61,6.52,32.11,3.27,36.86-4.98
				c4.45-7.73,8.73-21.81,12.87-25.73c0-0.01,0.01-0.01,0.01-0.01c0.27-0.22,0.55-0.44,0.83-0.64c2.88-2.12,6.1-3.54,10.24-5.14
				c0.63-0.22,1.24-0.43,1.84-0.63V176.61z"/>
		</g>
	</g>
	<g id="XMLID_4_">
		<path fill="#D66E3B" d="M240.29,156.53c-0.86,2.52-1.75,4.98-2.65,7.36c-3.81,0.43-7.42,1.15-10.8,2.04
			c1.34-3.1,2.43-5.89,3.33-8.29c0.08,0.82,0.77,1.64,1.64,1.64c0.21,0,0.42-0.04,0.64-0.14
			C234.96,157.93,237.6,157.07,240.29,156.53z"/>
		<path fill="#5B5C5C" d="M315.93,319.33c-0.4,7.84-5.39,13.36-14.24,14.37c-8.85,1.01-15.27-0.38-21.44-4.8
			c-3.09-2.21-4.65-5.78-4.72-9.56C283.94,327.74,303.39,331.87,315.93,319.33z"/>
		<path fill="#5B5C5C" d="M253.49,249.68c1.74,2.16,3.6,4.05,5.12,5.93c-5.3,4.92-15.45,13.5-24.98,16.82
			c-0.46-2.79-1.91-5.13-4.01-7.39C238.06,259.92,246.16,254.86,253.49,249.68z"/>
		<path fill="#5B5C5C" d="M256.2,314.33c0.08,8.48-4.97,14.53-14.26,15.58c-8.85,1-15.27-0.38-21.44-4.8
			c-3.06-2.19-4.63-5.71-4.73-9.44C223.72,323.62,246.07,329,256.2,314.33z"/>
		<path fill="#5B5C5C" d="M201.3,342.41c0.94,6.44-0.46,11.16-2.78,16.19c-2.36,3.24-5.69,5.52-9.46,6.92
			C193.44,363.27,199.95,352.78,201.3,342.41z"/>
		<path fill="#5B5C5C" d="M164.56,370.62c-3.01-3.01-4.31-6.44-4.25-9.95h0.01c6.37,6.37,19.01,8.51,28.74,4.85
			c3.77-1.4,7.1-3.68,9.46-6.92c-1,2.19-2.18,4.44-3.42,6.91C190.38,374.95,172.94,379.01,164.56,370.62z"/>
		<path fill="#5B5C5C" d="M78.7,342.42c5.98,11.25,17.14,13.55,23.55,11.57c6.42-1.99,16.53-8.77,19.64-17.21
			c1.96,14.56-12.59,21.64-22.42,24c-9.84,2.37-20.76-3.51-21.06-15.94C78.39,344.01,78.49,343.21,78.7,342.42z"/>
		<path fill="#5B5C5C" d="M83.28,122.83c-2.87,2.95-5.5,6.02-7.87,9.14c-0.51-0.58-18.59-21.32-31.61-23.17
			c-0.45-1.77-0.74-3.36-0.88-4.7C54.97,102.1,78.07,116.76,83.28,122.83z"/>
		<path fill="#5B5C5C" d="M180.81,53.4c1.19,1.73,2.49,4.16,3.73,7.09c-7.35,5.26-11.43,25.83-11.43,35.03
			c-3.52-0.73-7.17-1.29-10.92-1.65C162.19,85.94,170.31,59.7,180.81,53.4z"/>
		<g>
			<path fill="#C86433" d="M114.38,175.58c-1.84,0-3.58,0.45-5.11,1.24L89,184.03c5.98,5.99,17.87,17.52,28.67,13.86l-0.13-0.46
				c4.62-1.36,7.99-5.64,7.99-10.7C125.53,180.57,120.53,175.58,114.38,175.58z"/>
			<path fill="#C86433" d="M195.83,147.78c0,0-7.92,2.26-13.93,3.56c-0.35-0.03-0.72-0.05-1.08-0.05c-6.71,0-12.15,5.44-12.15,12.14
				c0,6.71,5.44,12.15,12.15,12.15c4.07,0,7.68-2,9.87-5.08c0.01-0.01,0.02-0.02,0.03-0.03
				C198.44,162.69,195.83,147.78,195.83,147.78z"/>
		</g>
		<path fill="#CE6A39" d="M145.13,93.64c7.12,0,8.87,0,8.87,0s3.38-0.35,8.19,0.23c3.75,0.36,7.4,0.92,10.92,1.65v0.01
			c5.69,1.19,11.04,2.84,15.88,4.87c0,0,0,0,6.84,3.33c5.07,2.83,9.29,6.13,12.36,9.75c0.81,0.96,1.61,1.88,2.37,2.77
			C173.64,97,140,103,130.75,126C110,114.25,90.56,125.56,64,152.12c0,0,0.93-3.03,3.07-6.96c2.23-4.4,5.03-8.85,8.34-13.19
			c2.37-3.12,5-6.19,7.87-9.14c6.35-6.35,8.47-8.58,8.47-8.58c4.41-2.63,4.41-2.63,4.41-2.63c6.95-5.12,14.74-9.48,23.15-12.63
			C127.76,95.95,136.51,94.24,145.13,93.64z"/>
		<path fill="#D66E3B" d="M240.29,156.53c5.24-1.06,10.71-0.9,15.97,0.28c1.21,0.29,2.41,0.62,3.6,0.97
			c2.5,0.75,4.94,1.64,7.33,2.69c3.88,1.77,9.16,4.59,12.48,7.22c5.17,3.83,9.83,8.49,13.81,13.95
			c-20.58-16.41-39.94-19.56-55.84-17.75C238.54,161.51,239.43,159.05,240.29,156.53z"/>
		<path fill="#D66E3B" d="M272.11,65.85c17.51-0.78,35.5,11.5,39.66,32.53h-0.01c-9.58-18.2-24.52-26.78-38.84-26.31
			C272.76,69.93,272.49,67.84,272.11,65.85z"/>
		<path fill="#C46232" d="M267.19,160.47c1.17-2.04,2.75-6.13,2.8-11.05c5.7,4.13,12.86,6.79,22.84,6.44
			c-4.56,5.35-9.22,9.47-13.16,11.83C276.35,165.06,271.07,162.24,267.19,160.47z"/>
		<path fill="#CA6433" d="M226.84,165.93c3.38-0.89,6.99-1.61,10.8-2.04c-23.53,62.26-57.72,77.98-64.53,79.78
			c-7.56,2-20.44,4.66-62.53-2.98c0.56-6.25,0.89-10.18,0.89-10.18c24.27,7.32,47.85,6.35,58.37,1.97
			c9.56-3.05,23.02-14.13,35.5-31.07C216.03,188.29,222.65,175.62,226.84,165.93z"/>
		<path fill="#D66E3B" d="M197.48,73.15h-0.01c-2.8-12.97-14.73-26.41-19.92-28.4c0,0-20.55,19.75-23.55,48.89c0,0-1.75,0-8.87,0
			c0-10.11,9.88-45.29,32.17-57.3C187.79,44.17,194.88,58.33,197.48,73.15z"/>
		<path fill="#D66E3B" d="M96.16,111.62c0,0,0,0-4.41,2.63C80,102.5,61.25,92.5,39,92.5c0,0-5.16,5.24-5.17,10.52
			c-0.51-4.91-0.31-9.71,0.71-14.18C59.28,83.54,89.57,103.91,96.16,111.62z"/>
	</g>
	<path fill="#5F5F5F" d="M166.59,184.329c0.921,2.755-5.471,11.335-8.25,14.881c-0.016,0.02-0.032,0.04-0.047,0.059
		c-0.795,0.96-2.302,1.291-3.361,1.078c-4.518-0.937-14.653-3.314-15.719-5.971c-1.377-3.432,0.59-9.753,10.65-13.303
		C159.832,177.271,165.421,180.822,166.59,184.329z M110.713,183.116c-2.617,2.22-2.939,6.144-0.72,8.761
		c2.22,2.617,6.144,2.936,8.761,0.716s2.94-6.14,0.72-8.757C117.25,181.219,113.331,180.896,110.713,183.116z M174.823,163.52
		c0,3.432,2.783,6.215,6.214,6.215c3.433,0,6.215-2.783,6.215-6.215c0-3.432-2.782-6.215-6.215-6.215
		C177.606,157.305,174.823,160.088,174.823,163.52z"/>
	<g>
		<g id="XMLID_1_">
			<path fill="#5A5B5B" d="M120.14,190.9c-0.35,0.63-0.81,1.2-1.39,1.69c-2.61,2.22-6.54,1.9-8.76-0.71
				c-0.75-0.89-1.21-1.91-1.38-2.98C111.11,191.39,116.04,193.4,120.14,190.9z"/>
			<path fill="#5A5B5B" d="M143.06,197.02c4.33,1.48,14.6,1.91,18.17-1.66c-1.08,1.51-2.12,2.87-2.89,3.85
				c-0.02,0.02-0.03,0.04-0.05,0.06c-0.79,0.96-2.3,1.29-3.36,1.08C152,199.74,146.71,198.52,143.06,197.02z"/>
			<path fill="#5A5B5B" d="M186.71,166.04c-0.96,2.17-3.14,3.69-5.67,3.69c-3.05,0-5.6-2.2-6.11-5.11
				C177.15,166.85,182.3,169.34,186.71,166.04z"/>
			<path fill="#636464" d="M110.71,183.12c2.62-2.22,6.54-1.9,8.76,0.72c0.65,0.77,1.09,1.66,1.3,2.58
				c-1.72-3.55-9.5-3.45-11.5-1.51C109.62,184.24,110.1,183.64,110.71,183.12z"/>
			<path fill="#636464" d="M166.59,184.33c0.41,1.22-0.62,3.58-2.13,6.14c1.21-5.03-4.58-7.59-10.84-6.97
				c-6.24,0.62-13.87,5.14-14.79,8.55c0.09-3.49,2.96-8.13,11.03-10.98C159.83,177.27,165.42,180.82,166.59,184.33z"/>
			<path fill="#636464" d="M181.04,157.31c3.25,0,5.91,2.49,6.18,5.67c-1.78-4.74-8.48-5.23-11.54-2.6
				C176.75,158.54,178.75,157.31,181.04,157.31z"/>
		</g>
	</g>
	<path fill="#FFFFFF" d="M118.336,185.162c0,0.868-0.703,1.571-1.571,1.571s-1.571-0.703-1.571-1.571s0.703-1.571,1.571-1.571
		S118.336,184.294,118.336,185.162z M182.972,159.294c-0.867,0-1.571,0.703-1.571,1.571c0,0.867,0.704,1.57,1.571,1.57
		c0.868,0,1.571-0.703,1.571-1.57C184.543,159.998,183.84,159.294,182.972,159.294z"/>
</g>
</svg>
